<svg width="32" height="32" viewBox="0 0 32 32" fill="none" xmlns="http://www.w3.org/2000/svg">
<path opacity="0.4" d="M27.6172 6.47867C25.4239 5.43734 23.1055 5.14667 20.6895 5.444C18.0135 5.77334 16 8.05074 16 10.7467V26.6667C19.7133 24.192 23.4253 24.0134 27.1387 25.068C27.5693 25.1907 28 24.8813 28 24.4333V7.09195C28 6.83462 27.8505 6.58934 27.6172 6.47867Z" fill="#00B881"/>
<path d="M4.38281 6.47867C6.57615 5.43734 8.89455 5.14667 11.3105 5.444C13.9865 5.77334 16 8.05074 16 10.7467V26.6667C12.2867 24.192 8.57466 24.0134 4.86133 25.068C4.43066 25.1907 4 24.8813 4 24.4333V7.09195C4 6.83462 4.14948 6.58934 4.38281 6.47867Z" fill="#00B881"/>
<path d="M24 13H20C19.448 13 19 12.552 19 12C19 11.448 19.448 11 20 11H24C24.552 11 25 11.448 25 12C25 12.552 24.552 13 24 13ZM23.6667 16C23.6667 15.448 23.2187 15 22.6667 15H20C19.448 15 19 15.448 19 16C19 16.552 19.448 17 20 17H22.6667C23.2187 17 23.6667 16.552 23.6667 16Z" fill="#00B881"/>
</svg>
