<svg width="28" height="28" viewBox="0 0 28 28" fill="none" xmlns="http://www.w3.org/2000/svg">
<path d="M11.8123 17.0625L11.3601 19.5911C11.3601 19.5911 11.2266 20.6295 12.2647 19.5911C13.3028 18.5528 14.2965 17.7521 14.2965 17.7521" fill="#8A93A6"/>
<path d="M8.89272 15.6704L4.74293 14.3435C4.74293 14.3435 4.24699 14.1461 4.40668 13.6983C4.43956 13.606 4.50587 13.5274 4.70425 13.3924C5.62373 12.7634 21.7231 7.08465 21.7231 7.08465C21.7231 7.08465 22.1777 6.93433 22.4458 7.03432C22.5121 7.05446 22.5718 7.09154 22.6187 7.14175C22.6656 7.19196 22.6981 7.2535 22.7129 7.32008C22.7418 7.43768 22.754 7.55867 22.7489 7.67955C22.7476 7.78412 22.7347 7.88104 22.7249 8.03304C22.6269 9.58563 19.6926 21.1731 19.6926 21.1731C19.6926 21.1731 19.517 21.8512 18.888 21.8744C18.7334 21.8793 18.5794 21.8536 18.4352 21.7989C18.2909 21.7441 18.1594 21.6614 18.0484 21.5557C16.8141 20.5137 12.5478 17.7 11.6051 17.0812C11.5839 17.067 11.5659 17.0484 11.5526 17.0268C11.5393 17.0053 11.5308 16.9811 11.5277 16.956C11.5146 16.8908 11.5868 16.81 11.5868 16.81C11.5868 16.81 19.0155 10.3299 19.2132 9.6496C19.2285 9.59689 19.1707 9.57089 19.093 9.59397C18.5996 9.77211 10.0464 15.0729 9.10244 15.6579C9.03448 15.6781 8.96266 15.6824 8.89272 15.6704Z" fill="#8E939D"/>
</svg>
