<svg width="33" height="32" viewBox="0 0 33 32" fill="none" xmlns="http://www.w3.org/2000/svg">
<path d="M14.1788 14C17.1243 14 19.5121 11.6122 19.5121 8.66665C19.5121 5.72113 17.1243 3.33331 14.1788 3.33331C11.2333 3.33331 8.84546 5.72113 8.84546 8.66665C8.84546 11.6122 11.2333 14 14.1788 14Z" fill="#00B881"/>
<path opacity="0.4" d="M21.5068 18.2214C21.5134 18.2854 21.5174 18.3787 21.4641 18.4787C21.0614 19.2267 20.8334 20.0827 20.8334 21V21.5866C19.9801 22.2933 19.5001 23.3999 19.5001 24.7599V27.9068C19.5001 28.0268 19.5001 28.1466 19.5134 28.2533V28.2666C19.5134 28.28 19.5134 28.28 19.5134 28.2933C19.5001 28.5066 19.3134 28.6667 19.1134 28.6667H8.83341C5.78008 28.6667 4.16675 27.0667 4.16675 24.0267C4.16675 20.6267 6.08675 16.6667 11.5001 16.6667H16.8334C18.7587 16.6667 20.2441 17.1628 21.3521 17.9694C21.4495 18.0401 21.5001 18.1574 21.5068 18.2214Z" fill="#00B881"/>
<path d="M29.5 22.7666V21C29.5 19.1627 28.0053 17.6667 26.1667 17.6667C24.328 17.6667 22.8333 19.1627 22.8333 21V22.7666C21.96 22.9826 21.5 23.632 21.5 24.7627V27.9053C21.5 29.3013 22.1667 30 23.5 30H28.8333C30.1667 30 30.8333 29.3013 30.8333 27.9053V24.7627C30.8333 23.6307 30.3733 22.9813 29.5 22.7666ZM26.1667 19.6667C26.9027 19.6667 27.5 20.2654 27.5 21V22.6667H24.8333V21C24.8333 20.2654 25.4307 19.6667 26.1667 19.6667Z" fill="#00B881"/>
</svg>
