<svg width="33" height="32" viewBox="0 0 33 32" fill="none" xmlns="http://www.w3.org/2000/svg">
<path opacity="0.4" d="M29.3092 22.8696L20.4999 6.39467C18.7932 3.20267 14.2079 3.20267 12.4999 6.39467L3.69067 22.8696C2.12533 25.7976 4.25072 29.3335 7.57739 29.3335H25.4224C28.7478 29.3335 30.8745 25.7963 29.3092 22.8696Z" fill="#00B881"/>
<path d="M16.5 19.6666C15.948 19.6666 15.5 19.2186 15.5 18.6666V13.3333C15.5 12.7813 15.948 12.3333 16.5 12.3333C17.052 12.3333 17.5 12.7813 17.5 13.3333V18.6666C17.5 19.2186 17.052 19.6666 16.5 19.6666ZM17.86 22.6666C17.86 21.9306 17.264 21.3333 16.5267 21.3333H16.5133C15.7773 21.3333 15.1865 21.9306 15.1865 22.6666C15.1865 23.4026 15.7907 24 16.5267 24C17.2627 24 17.86 23.4026 17.86 22.6666Z" fill="#00B881"/>
</svg>
