<svg width="33" height="32" viewBox="0 0 33 32" fill="none" xmlns="http://www.w3.org/2000/svg">
<path opacity="0.4" d="M29.5002 16C29.5002 23.4867 23.3202 29.5387 15.7868 29.328C8.83083 29.1346 3.0335 23.3361 2.83883 16.3801C2.62817 8.84673 8.68017 2.66669 16.1668 2.66669C17.9362 2.66669 19.6255 3.00673 21.1628 3.64406C21.3762 3.73206 21.4588 3.98402 21.3642 4.19468C20.8695 5.29068 20.6842 6.57868 20.9642 7.93068C21.4815 10.4334 23.6522 12.3786 26.1948 12.6346C27.0202 12.7173 27.8228 12.6387 28.5682 12.416C28.7882 12.3507 29.0228 12.464 29.0802 12.6867C29.3535 13.74 29.5002 14.8547 29.5002 16Z" fill="#00B881"/>
<path d="M20.1293 18.6893C20.1293 17.0866 19.0426 15.692 17.4813 15.2973L15.3373 14.7653C15.0067 14.6826 14.7253 14.4974 14.5133 14.2267C14.3133 13.9734 14.2026 13.648 14.2026 13.3133C14.2026 12.488 14.8733 11.8174 15.6986 11.8174H16.632C17.3946 11.8174 18.0333 12.3907 18.12 13.1507C18.1813 13.7 18.6773 14.1 19.2253 14.0333C19.7747 13.972 20.1693 13.4774 20.108 12.928C19.928 11.3254 18.688 10.0892 17.136 9.86391V9.33331C17.136 8.78131 16.688 8.33331 16.136 8.33331C15.584 8.33331 15.136 8.78131 15.136 9.33331V9.87205C13.476 10.144 12.2026 11.576 12.2026 13.3107C12.2026 14.0934 12.4653 14.8587 12.9386 15.456C13.4133 16.068 14.0906 16.5106 14.8506 16.7026L16.9946 17.2347C17.6626 17.404 18.1293 18.0013 18.1293 18.6867C18.1293 19.084 17.9733 19.4587 17.6893 19.7427C17.4053 20.0267 17.0307 20.1826 16.6333 20.1826H15.7C14.9373 20.1826 14.2986 19.6093 14.212 18.8493C14.1506 18.2999 13.656 17.8973 13.1066 17.9666C12.5573 18.0279 12.1626 18.5226 12.224 19.0719C12.4013 20.6546 13.612 21.8827 15.136 22.1294V22.6666C15.136 23.2186 15.584 23.6666 16.136 23.6666C16.688 23.6666 17.136 23.2186 17.136 22.6666V22.136C17.876 22.028 18.5626 21.7 19.1026 21.16C19.7653 20.4973 20.1293 19.6199 20.1293 18.6893Z" fill="#00B881"/>
<path d="M30.2066 5.95998C29.816 5.56931 29.1826 5.56931 28.792 5.95998L27.832 6.91994V2.66669C27.832 2.11469 27.384 1.66669 26.832 1.66669C26.28 1.66669 25.832 2.11469 25.832 2.66669V6.91864L24.872 5.95868C24.4813 5.56801 23.848 5.56801 23.4573 5.95868C23.0666 6.34935 23.0666 6.98273 23.4573 7.37339L26.124 10.0401C26.216 10.1321 26.3266 10.2054 26.4493 10.256C26.572 10.3067 26.7013 10.3334 26.832 10.3334C26.9626 10.3334 27.092 10.3067 27.2146 10.256C27.3373 10.2054 27.448 10.1321 27.54 10.0401L30.2066 7.37339C30.5973 6.98273 30.5973 6.35065 30.2066 5.95998Z" fill="#00B881"/>
</svg>
